<svg xmlns="http://www.w3.org/2000/svg" width="1600" height="900" viewBox="0 0 1600 900">
<defs><linearGradient id="g" x1="0" y1="0" x2="1" y2="1"><stop stop-color="#1d4ed8"/><stop offset="1" stop-color="#a855f7"/></linearGradient></defs>
<rect width="1600" height="900" fill="url(#g)"/>
<circle cx="1360" cy="120" r="180" fill="rgba(255,255,255,.12)"/>
<circle cx="260" cy="760" r="220" fill="rgba(255,255,255,.08)"/>
<path d="M0 760 C220 690, 310 620, 490 650 C700 690, 830 810, 1010 770 C1240 720, 1380 620, 1600 670 L1600 900 L0 900 Z" fill="rgba(255,255,255,.13)"/>
<g fill="rgba(255,255,255,.88)"><rect x="180" y="250" rx="28" ry="28" width="420" height="260" fill="rgba(255,255,255,.14)"/><rect x="230" y="300" rx="18" ry="18" width="320" height="22" fill="rgba(255,255,255,.4)"/><rect x="230" y="350" rx="16" ry="16" width="250" height="18" fill="rgba(255,255,255,.25)"/><rect x="230" y="390" rx="16" ry="16" width="290" height="18" fill="rgba(255,255,255,.2)"/><rect x="230" y="438" rx="20" ry="20" width="180" height="40" fill="rgba(255,255,255,.22)"/></g>
<g transform="translate(980,250)"><rect x="0" y="0" rx="42" ry="42" width="310" height="310" fill="rgba(255,255,255,.16)"/><circle cx="155" cy="112" r="58" fill="rgba(255,255,255,.2)"/><path d="M155 180 L205 270 L105 270 Z" fill="rgba(255,255,255,.85)"/><rect x="142" y="170" width="26" height="90" rx="13" fill="rgba(255,255,255,.85)"/></g>
<text x="180" y="150" font-family="Segoe UI, Arial, sans-serif" font-size="92" font-weight="800" fill="white">Нуржол</text>
<text x="180" y="220" font-family="Segoe UI, Arial, sans-serif" font-size="38" font-weight="600" fill="rgba(255,255,255,.9)">Ночной променад</text>
</svg>